<svg xmlns="http://www.w3.org/2000/svg" viewBox="0 0 36.24 39"><defs><style>.cls-1{fill:#933ec5;}</style></defs><title>Asset 8</title><g id="Layer_2" data-name="Layer 2"><g id="Home_Page_static" data-name="Home Page static"><path class="cls-1" d="M10.31,25.65H31.82a4.44,4.44,0,0,0,4.42-4.42V12.09a.1.1,0,0,0,0,0s0,0,0-.06,0,0,0,0a.51.51,0,0,1,0-.06l0,0,0,0,0-.06,0,0,0,0,0,0,0,0,0,0,0,0,0,0,0,0,0,0,0,0,0,0,0,0,0,0,0,0,0,0,0,0,0,0-.06,0h-.14L8.13,7.35V3.58a.61.61,0,0,1-.06-.11.06.06,0,0,0,0,0s0,0,0-.07L8,3.3s0,0,0,0l0-.07v0l0-.06,0,0,0,0,0,0,0,0,0,0,0,0,0,0,0,0-.06,0,0,0,0,0-.06,0,0,0-.1,0L1.5.09a1.08,1.08,0,1,0-.84,2L5.92,4.29V28a4.4,4.4,0,0,0,3.84,4.38,4.37,4.37,0,1,0,8.11,2.24,4.26,4.26,0,0,0-.6-2.2H27a4.28,4.28,0,0,0-.6,2.2,4.37,4.37,0,0,0,8.74,0c0-2.4-4.37-4.41-4.37-4.41H10.31A2.26,2.26,0,0,1,8.06,28V25A4.46,4.46,0,0,0,10.31,25.65Zm5.41,9a2.2,2.2,0,1,1-2.2-2.2A2.21,2.21,0,0,1,15.72,34.62Zm17.26,0a2.2,2.2,0,1,1-2.2-2.2A2.21,2.21,0,0,1,33,34.62Zm-1.21-11.1H10.31a2.26,2.26,0,0,1-2.26-2.26V9.57l26,3.58v8.1A2.26,2.26,0,0,1,31.77,23.52Z"/></g></g>
</svg>
