<svg xmlns="http://www.w3.org/2000/svg" viewBox="0 0 35 35"><defs><style>.cls-1{fill:#e895fc;}.cls-2{fill:#b742f4;}.cls-3{fill:#9740c6;}.cls-4{fill:#8d3eaf;}.cls-5{fill:#7b3399;}.cls-6{fill:#653296;}.cls-7{fill:#582977;}.cls-8{fill:#423072;}.cls-9{fill:#23235b;}</style></defs><title>Asset 6</title><g id="Layer_2" data-name="Layer 2"><g id="Home_page_2" data-name="Home page 2"><path class="cls-1" d="M7.87,35H12L5.46,30.78,0,27.61A7.85,7.85,0,0,0,7.87,35Z"/><path class="cls-2" d="M22.95,32.58l-4.72-1.21H7.85a4.22,4.22,0,0,1-4.22-4.22V24.83L1.81,22.89,0,23.21v3.94c0,.15,0,.3,0,.46L12,35H26.31Z"/><path class="cls-3" d="M30.22,30.08a4.21,4.21,0,0,1-3,1.29H18.23L26.32,35h.86a7.85,7.85,0,0,0,6.68-3.73L32,30.17Z"/><path class="cls-4" d="M31.38,22.28v4.87a4.21,4.21,0,0,1-1.19,2.93l3.64,1.19A7.8,7.8,0,0,0,35,27.16v-4.3l-1.87-1.05Z"/><polygon class="cls-5" points="35 10.2 33.07 9.73 31.38 10.75 31.38 22.29 35 22.87 35 10.2"/><path class="cls-6" d="M35,7.85A7.86,7.86,0,0,0,28.29.08l-4.75,2L21.13,3.62h6a4.22,4.22,0,0,1,4.22,4.22v2.91L35,10.2Z"/><path class="cls-7" d="M21.75,0,17.25,1.69,13.71,3.62h7.46L28.32.08A7.88,7.88,0,0,0,27.18,0Z"/><path class="cls-3" d="M17.52,27.76a10.21,10.21,0,0,0,3.57-.64l-5.88-2.67L9,23.17A10.26,10.26,0,0,0,17.52,27.76Z"/><path class="cls-4" d="M22.53,20.87a6,6,0,0,1-10.8-1.72l-1.62-1-2.79.31A10.19,10.19,0,0,0,9,23.17L21.1,27.12a10.31,10.31,0,0,0,5.84-5.54l-2.17-1.1Z"/><path class="cls-5" d="M11.49,17.5a6,6,0,0,1,1.45-3.92l-2.57-.36L7.75,14.37a10.22,10.22,0,0,0-.49,3.13c0,.32,0,.64,0,1l4.41.7A6,6,0,0,1,11.49,17.5Z"/><path class="cls-5" d="M27.78,17.5a10.2,10.2,0,0,0-1.87-5.91l-2.56-.36-2.63,1.16a6,6,0,0,1,1.8,8.49l4.41.7A10.2,10.2,0,0,0,27.78,17.5Z"/><path class="cls-6" d="M17.52,11.47a6,6,0,0,1,3.2.92l5.18-.79A10.26,10.26,0,0,0,7.75,14.37l5.19-.79A6,6,0,0,1,17.52,11.47Z"/><path class="cls-6" d="M27.18,10.26a2.41,2.41,0,1,0-2.41-2.41A2.42,2.42,0,0,0,27.18,10.26Z"/><polygon class="cls-3" points="3.62 21.43 1.88 20.56 0 20.25 0 23.22 3.62 24.84 3.62 21.43"/><polygon class="cls-4" points="0 17.3 0 20.26 3.62 21.44 3.62 17.87 1.74 17.19 0 17.3"/><polygon class="cls-5" points="3.62 14.97 1.76 14.95 0 15.53 0 17.26 3.62 17.84 3.62 14.97"/><polygon class="cls-6" points="3.62 12.29 1.7 12.48 0 14.08 0 15.56 3.62 15 3.62 12.29"/><polygon class="cls-7" points="0 14.08 3.62 12.29 3.62 8.16 1.5 8.36 0 9.79 0 14.08"/><path class="cls-8" d="M14,0,5.76,3.18.09,6.63A7.88,7.88,0,0,0,0,7.85V9.8L3.62,8.16V7.85A4.22,4.22,0,0,1,7.85,3.62H13.7l8-3.62Z"/><path class="cls-9" d="M7.87,0A7.86,7.86,0,0,0,.12,6.63L14,0Z"/></g></g>
</svg>
