<svg xmlns="http://www.w3.org/2000/svg" viewBox="0 0 44.92 31.14"><defs><style>.cls-1{fill:#933ec5;}</style></defs><title>Asset 7</title><g id="Layer_2" data-name="Layer 2"><g id="Home_Page_static" data-name="Home Page static"><path class="cls-1" d="M43.1,13.77H1.85A1.83,1.83,0,0,0,0,15.51a1.81,1.81,0,0,0,1.81,1.86H43.07a1.83,1.83,0,0,0,1.85-1.74A1.81,1.81,0,0,0,43.1,13.77Z"/><path class="cls-1" d="M43.1,0H1.85A1.83,1.83,0,0,0,0,1.74,1.81,1.81,0,0,0,1.81,3.6H43.07a1.83,1.83,0,0,0,1.85-1.74A1.81,1.81,0,0,0,43.1,0Z"/><path class="cls-1" d="M43.1,27.55H1.85A1.83,1.83,0,0,0,0,29.28a1.81,1.81,0,0,0,1.81,1.86H43.07a1.83,1.83,0,0,0,1.85-1.74A1.81,1.81,0,0,0,43.1,27.55Z"/></g></g>
</svg>
