<svg xmlns="http://www.w3.org/2000/svg" viewBox="0 0 222.19 75.92">
  <defs><style>.cls-1{fill:none;stroke:#ebd382;stroke-miterlimit:10;stroke-width:2px;}</style></defs><title>Asset 5</title><g id="Layer_2" data-name="Layer 2"><g id="Home_page_2" data-name="Home page 2"><path class="cls-1" d="M8.31,7.95A9.75,9.75,0,0,0,9.58,18c3.23,4,9,3.83,10.77,3.78a22.13,22.13,0,0,0,7.11-1.6,29.6,29.6,0,0,0,4.94-2.3,23.53,23.53,0,0,0,7-5.84A11.1,11.1,0,0,0,41.6,7.9,6.07,6.07,0,0,0,41.66,4a4.66,4.66,0,0,0-1.92-2.42,5,5,0,0,0-2.8-.6,8.59,8.59,0,0,0-3.24.75,15.4,15.4,0,0,0-2.87,1.47,59.31,59.31,0,0,0-7.61,5.94,48.59,48.59,0,0,0-5.54,6,49.91,49.91,0,0,0-5.15,8.53A61.15,61.15,0,0,0,8.13,36.37,24.31,24.31,0,0,0,7.3,43.6c.13,2.37.25,4.52,1.78,6.57a9.54,9.54,0,0,0,6.35,3.55c3.36.34,5.85-1.41,8.18-3.06a22.21,22.21,0,0,0,6.07-6.73A32.83,32.83,0,0,0,32.16,39c2.34-5.35,3-9.19,3.25-9.14s-.8,6.19-1.53,10.3C32.67,47,32.18,49,31.9,50a60.31,60.31,0,0,1-2.63,8.14,30,30,0,0,1-4.43,8.16A24.54,24.54,0,0,1,21.27,70a20.63,20.63,0,0,1-7.63,4.13,12.28,12.28,0,0,1-6.76.52c-1.12-.28-3.85-1-5.18-3.47A6.29,6.29,0,0,1,1,67.65c.87-6.58,23.69-3.76,35.26-17.19.47-.55,2.69-4,7.13-10.84,3.75-5.79,8.79-13.73,8.84-13.69S35.07,51.14,37.72,53.31c1.08.89,5.7-1.88,8.56-5.13,1.92-2.19,1.74-3.11,4-5.42.86-.88,5.12-5.24,7.7-4,1.43.69,1.86,2.86,2,3.37a6.28,6.28,0,0,1-.24,3.19,6.73,6.73,0,0,1-1.14,2A15.71,15.71,0,0,1,51.41,53a3.66,3.66,0,0,1-2,.29c-1.61-.3-3.09-2-2.85-3.42,0-.28.2-.76,1.71-2a21.62,21.62,0,0,1,3.42-2.28C54.57,44,56,43.25,57.12,43a6,6,0,0,1,4.28.29,11,11,0,0,0,1.71,1.14,5.68,5.68,0,0,0,2.85.29c3.1-.52,5.18-4.82,5.13-4.85s-8,11.79-7.7,12,2.7-3.32,6.85-7.42c2.16-2.14.68-.43,5.42-4.56,0,0,1.52-1.32,1.71-1.14s-1.48,1.57-1.43,3.42a3.05,3.05,0,0,0,1.43,2.57,3.51,3.51,0,0,0,3.14-.29c.8-.39,1.09-.8,2.28-2a21.41,21.41,0,0,1,2.85-2.57c.1.1-4.29,5.79-6.56,9.7-.36.61-1.08,1.9-.57,2.85a1.94,1.94,0,0,0,1.14.86c.54.17,1.53.25,4-1.43a31.38,31.38,0,0,0,4-3.42c1.41-1.34,2.11-2,2.85-2.85,2-2.32,1.71-2.67,3.14-4a10.4,10.4,0,0,1,4.85-2.57c1.2-.25,1.94-.41,2.57,0,1.54,1,1,4.49.29,6.56A12.56,12.56,0,0,1,97.06,51a16,16,0,0,1-3.14,2,3.26,3.26,0,0,1-4.85-1.43c-1.34-2.19-.18-5.69,1.71-7.7,3.82-4,10.57-1.95,11.7-1.14.81.58,1.14.86,1.14.86A7.67,7.67,0,0,0,105,44.76a3.17,3.17,0,0,0,1.43.29,6.49,6.49,0,0,0,3.71-1.43,17.88,17.88,0,0,0,3.71-3.71c.06,0-3,4.64-6.56,9.41a3.29,3.29,0,0,0-.86,2.57,2.16,2.16,0,0,0,1.14,1.43c1.47.67,3.5-.93,4.85-2a24,24,0,0,0,3.14-3.14c1.93-2.15,3.84-4.41,5.42-6.28,0,0,2-2.32,2-2.28a71.56,71.56,0,0,1-6,9.13,4.22,4.22,0,0,0-1.14,3.14,1.92,1.92,0,0,0,.57,1.14c.87.76,2.4.25,3.14,0,1.4-.47,2.15-1.28,4-3.14s2.84-2.76,3.42-3.42a23,23,0,0,0,3.14-4.28,10,10,0,0,1,.57-1.14c.38-.62,1-1.5,1.14-1.43s-.45,1.1-.57,2.57a10.45,10.45,0,0,0,.57,3.42c.76,3.05,1,3.21.86,4a5.16,5.16,0,0,1-2,2.85,4.61,4.61,0,0,1-2.28,1.14,4.13,4.13,0,0,1-4-1.71c-.85-1.31-1-3.43,0-4,.68-.39,1.66.1,2,.29"/><path class="cls-1" d="M97.21,57.45a25.12,25.12,0,0,1,9-.38c6.91,1,8.13,4.3,14.06,5.82,10.17,2.61,19.51-3.78,20.23-4.28,3.68-2.6,5.86-5.73,8.28-9.2,1.4-2,2.36-3.69,5.62-10.26,5.82-11.72,5.4-11.68,7.82-15.86,3.42-5.92,5.42-9.28,9.5-12.41,3-2.29,5.46-3.19,5.26-3.83-.36-1.14-8.56.33-14.82,2-12.77,3.36-19,7.84-21.53,9.84-6.78,5.36-7.11,8.74-7.07,10.14a7.37,7.37,0,0,0,1.91,4.71c3.5,3.63,9.95,1.44,11,1.07A13.77,13.77,0,0,0,153,29.55c.86-1.34,2.11-3.19,1.5-5.21-.31-1-1.2-2.39-2.27-2.43-1.89-.08-4.55,3.93-3.69,6.66,1.32,4.2,10.74,4.59,13.28,4.41,1.94-.14,3.68-.43,3.68-.43,1.32-.22,1.83-.37,3.14-.58s2.45-.34,3.68-.43"/><path class="cls-1" d="M180.5,17.56c-2.88,5.12-5.29,9.15-7,11.94a35.84,35.84,0,0,0-3.18,5.91,27.47,27.47,0,0,0-2,10.11c0,3.79.84,8.83,2.18,8.94.42,0,.82-.55,1.59-1.71A25.22,25.22,0,0,0,174,49.11c.69-1.48,1-2.23,1.27-2.64a22.82,22.82,0,0,1,2-2.85,13.76,13.76,0,0,1,4.28-4c1.42-.75,2.75-1.6,4.28-1.14a3.86,3.86,0,0,1,2.28,2c.8,1.91-.61,4.09-1.73,5.84a16.55,16.55,0,0,1-1.69,2.15c-2.51,2.79-4.8,5.33-6.56,4.85-1.52-.42-3-3.19-2.28-5.13,1.36-3.56,9.29-1.87,14-7.13.45-.5,1.28-1.53,1.43-1.43s-1,3-3,5.74a37.27,37.27,0,0,0-3.27,5.39,2.12,2.12,0,0,0-.29,1.71,2.27,2.27,0,0,0,2,1.14c1.1.05,1.91-.63,3.42-2,2.24-2,3.35-3,3.71-3.42,3.5-4,6.55-8.28,6.56-8.27s-4.13,7.79-6,10a3.27,3.27,0,0,0-.86,2,1.78,1.78,0,0,0,.29,1.14c.9,1,4.3-.72,4.56-.86,2-1,3.81-2.55,8-8.27,2-2.76,3.39-4.87,3.42-4.85s-8.63,13.45-8.27,13.69c.15.1,1.56-2.26,4.56-5.42,2.18-2.29,3.79-3.53,8.84-7.7h0a4.17,4.17,0,0,0-.57,2.28,3.3,3.3,0,0,0,1.14,2.57c1.22.83,2.9.07,3.71-.29a6.57,6.57,0,0,0,2.28-1.71"/></g></g>
</svg>
